<svg xmlns="http://www.w3.org/2000/svg" viewBox="0 0 512 512" fill="none">
  <!-- App icon background (blue squircle) -->
  <rect width="512" height="512" rx="112" fill="#3D5AF1"/>

  <!-- Inner rounded tile -->
  <rect x="128" y="128" width="256" height="256" rx="64" fill="#5B7CFF"/>
  <rect x="128" y="128" width="256" height="256" rx="64" fill="#FFFFFF" fill-opacity="0.10"/>
  <rect x="128" y="128" width="256" height="256" rx="64" fill="none" stroke="#FFFFFF" stroke-opacity="0.18" stroke-width="2"/>

  <!-- Bell stem / crown -->
  <rect x="246" y="172" width="20" height="24" rx="10" fill="#FFFFFF"/>

  <!-- Bell body -->
  <path fill="#FFFFFF" d="M256 190 C214 190 184 220 184 262 L184 300 L160 330 L352 330 L328 300 L328 262 C328 220 298 190 256 190 Z"/>

  <!-- Bell clapper -->
  <path fill="#FFFFFF" d="M232 330 C232 354 244 366 256 366 C268 366 280 354 280 330 Z"/>
</svg>
