<svg xmlns="http://www.w3.org/2000/svg" viewBox="0 0 320 100" fill="none">
  <defs>
    <filter id="softShadow" x="-20%" y="-20%" width="140%" height="140%">
      <feDropShadow dx="0" dy="4" stdDeviation="6" flood-color="#3D5AF1" flood-opacity="0.35"/>
    </filter>
  </defs>

  <!-- Icon squircle background (blue) -->
  <rect x="0" y="4" width="92" height="92" rx="22" fill="#3D5AF1" filter="url(#softShadow)"/>

  <!-- Inner rounded tile -->
  <rect x="20" y="24" width="52" height="52" rx="14" fill="#5B7CFF"/>
  <rect x="20" y="24" width="52" height="52" rx="14" fill="#FFFFFF" fill-opacity="0.10"/>

  <!-- Bell stem -->
  <rect x="43" y="31" width="6" height="7" rx="3" fill="#FFFFFF"/>

  <!-- Bell body -->
  <path fill="#FFFFFF" d="M46 34 C38 34 32 40 32 48 L32 55 L27 61 L65 61 L60 55 L60 48 C60 40 54 34 46 34 Z"/>

  <!-- Bell clapper -->
  <path fill="#FFFFFF" d="M40 61 C40 65 42.5 68 46 68 C49.5 68 52 65 52 61 Z"/>

  <!-- Wordmark: "RemindUs" -->
  <text x="108" y="52"
    font-family="'Nunito', 'DM Sans', system-ui, sans-serif"
    font-size="30"
    font-weight="800"
    letter-spacing="-0.5"><tspan fill="#3D5AF1">Remind</tspan><tspan fill="#2A3FCC">Us</tspan></text>

  <!-- Tagline -->
  <text x="108" y="70"
    font-family="'DM Sans', system-ui, sans-serif"
    font-size="12"
    font-weight="500"
    fill="#9CA3AF"
    letter-spacing="0.5">Smart Reminders · Stay Accountable</text>
</svg>
